<svg width="136" height="30" viewBox="0 0 136 30" fill="none" xmlns="http://www.w3.org/2000/svg">
<path d="M79.5007 18.4816H76.0518L75.4234 21.0691H73.9619L77.0169 9.15199H78.5297L81.5886 21.0691H80.1271L79.5007 18.4816ZM79.1954 17.1869L78.2263 13.1527C78.0392 12.3869 77.8698 11.3763 77.8009 10.9224H77.7497C77.6827 11.3823 77.5113 12.3869 77.3242 13.1527L76.3551 17.1869H79.1954Z" fill="#202020"/>
<path d="M82.8496 17.6309V12.5901C82.8496 10.2415 84.1752 8.92896 86.1627 8.92896C88.2013 8.92896 89.458 10.1882 89.5782 12.4816H88.1994C88.0969 10.95 87.3839 10.2336 86.143 10.2336C85.0045 10.2336 84.2402 10.9816 84.2402 12.5822V17.6309C84.2402 19.2099 85.038 19.9638 86.1942 19.9638C87.4509 19.9638 88.1481 19.2316 88.284 17.7336H89.6628C89.5269 19.9974 88.2703 21.2743 86.1961 21.2743C84.191 21.2743 82.8496 19.9796 82.8496 17.6309Z" fill="#202020"/>
<path d="M95.9666 18.4817H92.5176L91.8893 21.0692H90.4277L93.4867 9.1521H94.9994L98.0584 21.0692H96.5969L95.9666 18.4817ZM95.6613 17.187L94.6922 13.1528C94.505 12.387 94.3356 11.3764 94.2667 10.9225H94.2155C94.1485 11.3824 93.9772 12.387 93.79 13.1528L92.8209 17.187H95.6613Z" fill="#202020"/>
<path d="M99.8662 9.1521H102.687C104.964 9.1521 106.289 10.4804 106.289 12.762V17.4613C106.289 19.7429 104.948 21.0712 102.705 21.0712H99.8662V9.1521ZM102.71 19.7429C104.103 19.7429 104.903 18.9534 104.903 17.41V12.7955C104.903 11.2639 104.115 10.4804 102.71 10.4804H101.267V19.7429H102.71Z" fill="#202020"/>
<path d="M114.757 19.7587V21.0692H108.88V9.1521H114.572V10.4468H110.272V14.3804H114.265V15.6574H110.272V19.7607L114.757 19.7587Z" fill="#202020"/>
<path d="M125.989 9.1521V21.0692H124.61V15.5982C124.628 14.3034 124.662 13.1468 124.729 11.9883L124.66 11.9705C124.337 12.8725 123.895 13.9797 123.478 15.1028L122.237 18.3199H120.858L119.601 15.1028C119.194 13.9797 118.735 12.8725 118.42 11.9705L118.335 11.9883C118.404 13.1468 118.453 14.3034 118.453 15.5982V21.0633H117.074V9.1521H118.536L120.592 14.1396C120.882 14.8541 121.305 16.0284 121.492 16.6422H121.561C121.758 16.0304 122.19 14.8541 122.479 14.1396L124.535 9.1521H125.989Z" fill="#202020"/>
<path d="M130.66 16.9797L127.737 9.1521H129.199L130.71 13.4271C130.907 13.9896 131.151 14.6705 131.356 15.2824H131.381C131.578 14.6685 131.822 13.9718 132.027 13.3935L133.54 9.15408H135.002L132.053 16.9797V21.0653H130.66V16.9797Z" fill="#202020"/>
<path d="M51.382 17.2057H48.7158V11.3825L51.382 10.902V17.2057Z" fill="#7D38DB"/>
<path d="M55.2111 17.2057H52.5449V10.1104L55.2111 9.60425V17.2057Z" fill="#7D38DB"/>
<path d="M59.0363 8.95435H56.3701V17.2056H59.0363V8.95435Z" fill="#7D38DB"/>
<path d="M62.8674 17.2055H60.2012V10.1042L62.8674 10.5848V17.2055Z" fill="#7D38DB"/>
<path d="M62.8655 18.3752H56.374V21.0476H62.8655V18.3752Z" fill="#7D38DB"/>
<path d="M55.7423 30C52.7815 30 49.8873 29.1203 47.4255 27.472C44.9637 25.8238 43.045 23.4811 41.912 20.7403C40.7789 17.9994 40.4825 14.9834 41.0601 12.0736C41.6377 9.16393 43.0635 6.49119 45.157 4.3934C47.2506 2.29562 49.9179 0.867006 52.8218 0.288228C55.7257 -0.290551 58.7356 0.00649928 61.471 1.14181C64.2063 2.27713 66.5443 4.19972 68.1892 6.66645C69.8341 9.13319 70.7121 12.0333 70.7121 15C70.7079 18.977 69.1294 22.7899 66.3229 25.602C63.5164 28.4141 59.7112 29.9958 55.7423 30ZM55.7423 2.95589C53.3646 2.95589 51.0403 3.66238 49.0633 4.98602C47.0863 6.30966 45.5454 8.19101 44.6355 10.3921C43.7256 12.5933 43.4876 15.0153 43.9514 17.352C44.4153 19.6888 45.5603 21.8352 47.2416 23.5198C48.9228 25.2045 51.0649 26.3518 53.3969 26.8166C55.7289 27.2814 58.1461 27.0428 60.3428 26.1311C62.5395 25.2194 64.4171 23.6754 65.7381 21.6944C67.059 19.7134 67.7641 17.3845 67.7641 15.002C67.7594 11.809 66.4912 8.74812 64.2376 6.49068C61.984 4.23325 58.9289 2.96348 55.7423 2.95983V2.95589Z" fill="#7D38DB"/>
<path d="M0 17.3408V12.6039C0 10.1348 1.3591 8.80654 3.63609 8.80654C5.84414 8.80654 7.10278 10.1348 7.18157 12.5565H5.09367C5.04246 11.3486 4.58352 10.8375 3.63215 10.8375C2.68078 10.8375 2.15486 11.3644 2.15486 12.6138V17.3506C2.15486 18.594 2.6985 19.1269 3.6676 19.1269C4.67019 19.1269 5.21383 18.6 5.21383 17.3901V16.2315H3.56518V14.3763H7.25248V17.3743C7.20127 19.7921 5.87368 21.1361 3.63412 21.1361C1.39456 21.1361 0 19.7921 0 17.3408Z" fill="#7D38DB"/>
<path d="M13.8582 18.7716H11.073L10.5964 20.9426H8.42969L11.3527 9.02554H13.5903L16.5094 20.9269H14.3428L13.8582 18.7716ZM13.4347 16.7821L12.9581 14.5696C12.7887 13.7525 12.6015 12.442 12.4814 11.6407H12.4302C12.3277 12.44 12.1406 13.7525 11.9712 14.5696L11.4965 16.7821H13.4347Z" fill="#7D38DB"/>
<path d="M27.9273 9.01577V20.927H25.8729V17.2046C25.9241 15.8092 25.9753 14.4414 26.0423 13.1013L25.9576 13.0677C25.6168 14.0546 25.2268 15.1283 24.8526 16.2L24.0548 18.3118H21.9807L21.183 16.2C20.8088 15.1283 20.4345 14.0546 20.078 13.0677L19.9933 13.1013C20.0603 14.4454 20.1115 15.8072 20.1627 17.2046V20.927H18.1221V9.01577H20.2297L22.1659 13.6796C22.42 14.3092 22.8277 15.3987 22.9813 15.8921H23.0463C23.2 15.3987 23.6235 14.3131 23.8795 13.6796L25.8039 9.01577H27.9273Z" fill="#7D38DB"/>
<path d="M34.9774 18.7718H32.1922L31.7116 20.927H29.5449L32.468 9.00991H34.7056L37.6207 20.927H35.4541L34.9774 18.7718ZM34.5539 16.7823L34.0753 14.5658C33.9059 13.7487 33.7187 12.4382 33.5986 11.6369H33.5474C33.445 12.4362 33.2578 13.7487 33.0884 14.5658L32.6157 16.7823H34.5539Z" fill="#7D38DB"/>
</svg>
