<svg width="24" height="24" viewBox="0 0 24 24" fill="none" xmlns="http://www.w3.org/2000/svg">
<path d="M12.8438 6C9.4375 5.90625 6.65625 8.625 6.65625 12H5.46875C5.1875 12 5.03125 12.375 5.25 12.5625L7.09375 14.4375C7.21875 14.5625 7.4375 14.5625 7.5625 14.4375L9.4375 12.5625C9.625 12.375 9.5 12 9.1875 12H8C8 9.40625 10.125 7.3125 12.7188 7.34375C15.2188 7.375 17.3125 9.46875 17.3438 11.9375C17.375 14.5312 15.2812 16.6562 12.6562 16.6562C11.5938 16.6562 10.5938 16.3125 9.8125 15.6875C9.53125 15.4688 9.1875 15.5 8.9375 15.7188C8.65625 16 8.6875 16.5 9 16.7188C10 17.5312 11.2812 18 12.6562 18C16.0312 18 18.75 15.2188 18.6562 11.8125C18.5938 8.6875 15.9688 6.09375 12.8438 6ZM12.5 9.34375C12.2188 9.34375 12 9.5625 12 9.84375V12.2812C12 12.5312 12.125 12.75 12.3125 12.875L14.4062 14.0938C14.6562 14.2188 14.9688 14.1562 15.0938 13.9062C15.2188 13.6875 15.1562 13.375 14.9062 13.2188L13 12.0938V9.8125C13 9.5625 12.7812 9.34375 12.5 9.34375Z" fill="#7D38DB"/>
</svg>
