<svg width="31" height="30" viewBox="0 0 31 30" fill="none" xmlns="http://www.w3.org/2000/svg">
<path d="M11.382 17.2057H8.71582V11.3825L11.382 10.902V17.2057Z" fill="#7D38DB"/>
<path d="M15.2111 17.2057H12.5449V10.1104L15.2111 9.60425V17.2057Z" fill="#7D38DB"/>
<path d="M19.0363 8.95435H16.3701V17.2056H19.0363V8.95435Z" fill="#7D38DB"/>
<path d="M22.8674 17.2055H20.2012V10.1042L22.8674 10.5848V17.2055Z" fill="#7D38DB"/>
<path d="M22.8655 18.3752H16.374V21.0476H22.8655V18.3752Z" fill="#7D38DB"/>
<path d="M15.7423 30C12.7815 30 9.88726 29.1203 7.42549 27.472C4.96372 25.8238 3.045 23.4811 1.91198 20.7403C0.778946 17.9994 0.482495 14.9834 1.06011 12.0736C1.63772 9.16393 3.06345 6.49119 5.15702 4.3934C7.25058 2.29562 9.91795 0.867006 12.8218 0.288228C15.7257 -0.290551 18.7356 0.00649928 21.471 1.14181C24.2063 2.27713 26.5443 4.19972 28.1892 6.66645C29.8341 9.13319 30.7121 12.0333 30.7121 15C30.7079 18.977 29.1294 22.7899 26.3229 25.602C23.5164 28.4141 19.7112 29.9958 15.7423 30ZM15.7423 2.95589C13.3646 2.95589 11.0403 3.66238 9.0633 4.98602C7.08632 6.30966 5.54545 8.19101 4.63554 10.3921C3.72564 12.5933 3.48757 15.0153 3.95143 17.352C4.4153 19.6888 5.56027 21.8352 7.24155 23.5198C8.92284 25.2045 11.0649 26.3518 13.3969 26.8166C15.7289 27.2814 18.1461 27.0428 20.3428 26.1311C22.5395 25.2194 24.4171 23.6754 25.7381 21.6944C27.059 19.7134 27.7641 17.3845 27.7641 15.002C27.7594 11.809 26.4912 8.74812 24.2376 6.49068C21.984 4.23325 18.9289 2.96348 15.7423 2.95983V2.95589Z" fill="#7D38DB"/>
</svg>
