<svg width="14" height="14" viewBox="0 0 14 14" fill="none" xmlns="http://www.w3.org/2000/svg">
<path d="M7 0.34375C3.3125 0.34375 0.34375 3.3125 0.34375 7C0.34375 10.6875 3.3125 13.6562 7 13.6562C10.6875 13.6562 13.6562 10.6875 13.6562 7C13.6562 3.3125 10.6875 0.34375 7 0.34375ZM7 10.3438C6.625 10.3438 6.34375 10.0312 6.34375 9.65625V7C6.34375 6.625 6.625 6.34375 7 6.34375C7.375 6.34375 7.65625 6.625 7.65625 7V9.65625C7.65625 10.0312 7.375 10.3438 7 10.3438ZM7.65625 5H6.34375V3.65625H7.65625V5Z" fill="#556DE1"/>
</svg>
