<svg width="16" height="12" viewBox="0 0 16 12" fill="none" xmlns="http://www.w3.org/2000/svg">
<path d="M11.6562 0C10.375 0 8.96875 0.28125 8 1C7.03125 0.28125 5.625 0 4.34375 0C3.375 0 2.34375 0.15625 1.46875 0.53125C1 0.75 0.65625 1.21875 0.65625 1.75V9.28125C0.65625 10.1562 1.46875 10.7812 2.3125 10.5625C2.96875 10.4062 3.65625 10.3438 4.34375 10.3438C5.375 10.3438 6.46875 10.5 7.375 10.9375C7.78125 11.1562 8.21875 11.1562 8.625 10.9375C9.5 10.5 10.625 10.3438 11.6562 10.3438C12.3125 10.3438 13.0312 10.4062 13.6875 10.5625C14.5 10.7812 15.3125 10.1562 15.3125 9.28125V1.75C15.3125 1.21875 15 0.75 14.5 0.53125C13.6562 0.15625 12.625 0 11.6562 0ZM14 8.5C14 8.90625 13.625 9.21875 13.1875 9.125C12.6875 9.03125 12.1875 9 11.6562 9C10.5312 9 8.90625 9.4375 8 10V2.34375C8.90625 1.78125 10.5312 1.34375 11.6562 1.34375C12.2812 1.34375 12.875 1.40625 13.4688 1.53125C13.7812 1.59375 14 1.875 14 2.1875V8.5Z" fill="#7D38DB"/>
</svg>
