<svg width="24" height="24" viewBox="0 0 24 24" fill="none" xmlns="http://www.w3.org/2000/svg">
<path d="M14.3438 13.3438H13.8125L13.625 13.1562C14.4062 12.2188 14.8438 10.9375 14.5938 9.59375C14.2812 7.75 12.75 6.25 10.875 6.03125C8.0625 5.6875 5.6875 8.0625 6.03125 10.875C6.25 12.75 7.75 14.2812 9.59375 14.5938C10.9375 14.8438 12.2188 14.4062 13.1562 13.625L13.3438 13.8125V14.3438L16.1562 17.1562C16.4375 17.4375 16.875 17.4375 17.1562 17.1562C17.4375 16.9062 17.4375 16.4375 17.1562 16.1875L14.3438 13.3438ZM10.3438 13.3438C8.6875 13.3438 7.34375 12 7.34375 10.3438C7.34375 8.6875 8.6875 7.34375 10.3438 7.34375C12 7.34375 13.3438 8.6875 13.3438 10.3438C13.3438 12 12 13.3438 10.3438 13.3438Z" fill="#7D38DB"/>
</svg>
