<svg width="24" height="24" viewBox="0 0 24 24" fill="none" xmlns="http://www.w3.org/2000/svg">
<path d="M12 5.34375C8.3125 5.34375 5.34375 8.3125 5.34375 12C5.34375 15.6875 8.3125 18.6562 12 18.6562C15.6875 18.6562 18.6562 15.6875 18.6562 12C18.6562 8.3125 15.6875 5.34375 12 5.34375ZM14.1562 15.5938L12 14.3125L9.84375 15.5938C9.59375 15.75 9.28125 15.5312 9.34375 15.2188L9.90625 12.7812L8.03125 11.1562C7.8125 10.9688 7.9375 10.5938 8.21875 10.5625L10.7188 10.375L11.6875 8.0625C11.8125 7.78125 12.1875 7.78125 12.3125 8.0625L13.2812 10.3438L15.7812 10.5625C16.0625 10.5938 16.1875 10.9688 15.9688 11.1562L14.0625 12.7812L14.625 15.2188C14.7188 15.5312 14.4062 15.75 14.1562 15.5938Z" fill="#7D38DB"/>
</svg>
