<svg width="24" height="24" viewBox="0 0 24 24" fill="none" xmlns="http://www.w3.org/2000/svg">
<rect width="24" height="24" rx="12" fill="#7D38DB"/>
<path d="M12 18.6562C12.7188 18.6562 13.3438 18.0625 13.3438 17.3438H10.6562C10.6562 18.0625 11.25 18.6562 12 18.6562ZM16 14.6562V11.3438C16 9.28125 14.9062 7.5625 13 7.125V6.65625C13 6.125 12.5625 5.65625 12 5.65625C11.4375 5.65625 11 6.125 11 6.65625V7.125C9.09375 7.5625 8 9.28125 8 11.3438V14.6562L7.125 15.5312C6.71875 15.9375 7 16.6562 7.59375 16.6562H16.375C16.9688 16.6562 17.2812 15.9375 16.875 15.5312L16 14.6562Z" fill="white"/>
</svg>
