<svg width="14" height="14" viewBox="0 0 14 14" fill="none" xmlns="http://www.w3.org/2000/svg">
<path d="M7 0.34375C3.3125 0.34375 0.34375 3.3125 0.34375 7C0.34375 10.6875 3.3125 13.6562 7 13.6562C10.6875 13.6562 13.6562 10.6875 13.6562 7C13.6562 3.3125 10.6875 0.34375 7 0.34375ZM9.15625 10.5938L7 9.3125L4.84375 10.5938C4.59375 10.75 4.28125 10.5312 4.34375 10.2188L4.90625 7.78125L3.03125 6.15625C2.8125 5.96875 2.9375 5.59375 3.21875 5.5625L5.71875 5.375L6.6875 3.0625C6.8125 2.78125 7.1875 2.78125 7.3125 3.0625L8.28125 5.34375L10.7812 5.5625C11.0625 5.59375 11.1875 5.96875 10.9688 6.15625L9.0625 7.78125L9.625 10.2188C9.71875 10.5312 9.40625 10.75 9.15625 10.5938Z" fill="#7D38DB"/>
</svg>
