<svg width="15" height="14" viewBox="0 0 15 14" fill="none" xmlns="http://www.w3.org/2000/svg">
<path d="M1.6875 12.0938L2.59375 12.4688V6.46875L0.96875 10.375C0.6875 11.0312 1 11.8125 1.6875 12.0938ZM14.6875 9.625L11.375 1.65625C11.1875 1.15625 10.6875 0.84375 10.1875 0.84375C10 0.84375 9.8125 0.875 9.65625 0.9375L4.71875 2.96875C4.21875 3.1875 3.9375 3.65625 3.90625 4.15625C3.90625 4.34375 3.9375 4.53125 4 4.6875L7.3125 12.6875C7.53125 13.1875 8.03125 13.5 8.53125 13.5C8.71875 13.5 8.875 13.4688 9.0625 13.4062L13.9688 11.375C14.625 11.0938 14.9688 10.3125 14.6875 9.625ZM5.25 4.84375C4.875 4.84375 4.59375 4.53125 4.59375 4.15625C4.59375 3.8125 4.875 3.5 5.25 3.5C5.625 3.5 5.90625 3.8125 5.90625 4.15625C5.90625 4.53125 5.625 4.84375 5.25 4.84375ZM3.90625 12.1562C3.90625 12.9062 4.53125 13.5 5.25 13.5H6.21875L3.90625 7.9375V12.1562Z" fill="#7D38DB"/>
</svg>
