<svg width="14" height="14" viewBox="0 0 14 14" fill="none" xmlns="http://www.w3.org/2000/svg">
<path d="M7.65625 0.34375H1.65625C0.9375 0.34375 0.34375 0.9375 0.34375 1.65625V7.65625C0.34375 8.03125 0.625 8.34375 1 8.34375C1.375 8.34375 1.65625 8.03125 1.65625 7.65625V1.65625H7.65625C8.03125 1.65625 8.34375 1.375 8.34375 1C8.34375 0.625 8.03125 0.34375 7.65625 0.34375ZM10.3438 3H4.34375C3.59375 3 3 3.59375 3 4.34375V10.3438C3 10.6875 3.3125 11 3.65625 11C4.03125 11 4.34375 10.6875 4.34375 10.3438V4.34375H10.3438C10.6875 4.34375 11 4.03125 11 3.65625C11 3.3125 10.6875 3 10.3438 3ZM12.3438 5.65625H7C6.28125 5.65625 5.65625 6.28125 5.65625 7V12.3438C5.65625 13.0625 6.28125 13.6562 7 13.6562H12.3438C13.0625 13.6562 13.6562 13.0625 13.6562 12.3438V7C13.6562 6.28125 13.0625 5.65625 12.3438 5.65625Z" fill="#7D38DB"/>
</svg>
