<svg width="12" height="12" viewBox="0 0 12 12" fill="none" xmlns="http://www.w3.org/2000/svg">
<path d="M7.34375 4.34375H9.34375C9.6875 4.34375 10 4.03125 10 3.65625C10 3.3125 9.6875 3 9.34375 3H7.34375C6.96875 3 6.65625 3.3125 6.65625 3.65625C6.65625 4.03125 6.96875 4.34375 7.34375 4.34375ZM7.34375 9H9.34375C9.6875 9 10 8.6875 10 8.34375C10 7.96875 9.6875 7.65625 9.34375 7.65625H7.34375C6.96875 7.65625 6.65625 7.96875 6.65625 8.34375C6.65625 8.6875 6.96875 9 7.34375 9ZM10.6562 12H1.34375C0.59375 12 0 11.4062 0 10.6562V1.34375C0 0.59375 0.59375 0 1.34375 0H10.6562C11.4062 0 12 0.59375 12 1.34375V10.6562C12 11.4062 11.4062 12 10.6562 12ZM2.65625 5.34375H4.65625C5.03125 5.34375 5.34375 5.03125 5.34375 4.65625V2.65625C5.34375 2.3125 5.03125 2 4.65625 2H2.65625C2.3125 2 2 2.3125 2 2.65625V4.65625C2 5.03125 2.3125 5.34375 2.65625 5.34375ZM2.65625 2.65625H4.65625V4.65625H2.65625V2.65625ZM2.65625 10H4.65625C5.03125 10 5.34375 9.6875 5.34375 9.34375V7.34375C5.34375 6.96875 5.03125 6.65625 4.65625 6.65625H2.65625C2.3125 6.65625 2 6.96875 2 7.34375V9.34375C2 9.6875 2.3125 10 2.65625 10ZM2.65625 7.34375H4.65625V9.34375H2.65625V7.34375Z" fill="#7D38DB"/>
</svg>
